<svg width="24" height="24" viewBox="0 0 24 24" fill="none" xmlns="http://www.w3.org/2000/svg">
<path d="M0.664822 7.38099C1.28559 7.03816 2.06735 7.26404 2.40937 7.88561L2.82428 8.63613C4.24364 4.29157 8.33027 1.14209 13.1426 1.14209C19.1292 1.14209 24 6.0129 24 11.9995C24 17.9861 19.1292 22.8569 13.1426 22.8569C12.4329 22.8569 11.8578 22.2818 11.8578 21.5729C11.8578 20.864 12.4329 20.2889 13.1426 20.2889C17.713 20.2889 21.432 16.5699 21.432 11.9987C21.432 7.42744 17.713 3.71006 13.1426 3.71006C9.51814 3.71006 6.43674 6.05215 5.31295 9.29935L6.01462 8.91247C6.63538 8.56965 7.41715 8.79473 7.75917 9.4163C8.10199 10.0379 7.87691 10.8188 7.25535 11.1608L4.71702 12.561C4.50796 12.9863 4.07543 13.2827 3.5684 13.2827C3.44024 13.2827 3.31929 13.2578 3.20315 13.2234C3.19594 13.2234 3.19034 13.2258 3.18313 13.2258C2.73057 13.2258 2.29243 12.9871 2.05694 12.5618L0.160198 9.12393C-0.182625 8.50477 0.0432549 7.72381 0.664822 7.38099Z" fill="white"/>
</svg>
